<svg id="Layer_1" data-name="Layer 1" xmlns="http://www.w3.org/2000/svg" viewBox="0 0 1200 1200"><defs><style>.cls-1{fill:#ffffff;}</style></defs><path class="cls-1" d="M625.4,704.3C470.77,683.15,362.56,540.66,383.71,386A281.57,281.57,0,0,1,492.42,199.74l144.63,212,158,1.24-1.24-268.28H454.89c-222.76,0-403.34,180.59-403.34,403.36S232.13,951.44,454.9,951.44c191.67,0,352-133.73,393.06-313A281.82,281.82,0,0,1,625.4,704.3Z"/><path class="cls-1" d="M1148.39,840c2.39-76.13-60.21-138.59-136.37-139.44S878.36,760.08,878.69,835.37c.19,44.22,18.67,77.59,56.2,102.37,28.66,18.94,65.34,25.46,90.71,13.2l-54.3,71.9,43.08,32.43,116.16-153.81C1141.45,885.7,1147.59,865.22,1148.39,840Z"/></svg>