<svg id="Layer_1" data-name="Layer 1" xmlns="http://www.w3.org/2000/svg" viewBox="0 0 1200 400"><defs><style>.cls-1{fill:#383838;}</style></defs><path class="cls-1" d="M351.83,151.37c23.21,0,37.67,12.95,42,31.94L373,188.69C371.5,178.6,365,170.2,352.17,170.2s-22.53,10.08-22.53,25.22,8.91,25.22,22.53,25.22c12.78,0,18.66-7.4,20.85-18.33l20.85,5.22c-4,19-18.66,31.94-42,31.94-24.21,0-43.38-18.15-43.38-44.05S327.62,151.37,351.83,151.37Z"/><path class="cls-1" d="M444.8,151.37c22.2,0,37.83,12.95,37.83,33.12v52.63H461.78V225.35h-2.35c-2.69,5.55-8.57,14.12-26.23,14.12-18.83,0-31.28-10.09-31.28-26.06,0-13.28,11.61-22.53,27.58-24.21l31.95-3.54V183c0-7.74-5.72-14.46-17.49-14.46-4.69,0-13.48,1-18.47,11.74l-17.15-10.42C414.89,160.25,422.61,151.37,444.8,151.37ZM438.41,222c14.8,0,23-8.75,23-20.18v-2l-25.56,3c-7.9,1-11.77,4.54-11.77,9.41C424.12,218,429,222,438.41,222Z"/><path class="cls-1" d="M498.25,153.72H519.1v11.77h2.35c4.37-7.06,11.77-14.12,26.57-14.12,20.85,0,38.33,18.49,38.33,44S568.87,239.47,548,239.47c-14.8,0-22.2-7.06-26.57-14.12h-2v34.41H498.25Zm66.92,41.7c0-16.14-10.09-25.22-22.87-25.22-13.12,0-22.87,9.41-22.87,25.22s9.75,25.22,22.87,25.22C555.08,220.64,565.17,211.56,565.17,195.42Z"/><path class="cls-1" d="M611.81,115c8.41,0,15,5.89,15,14.46s-6.56,14.47-15,14.47-15-5.89-15-14.47S603.41,115,611.81,115Zm10.6,122.08H601.22v-83.4h21.19Z"/><path class="cls-1" d="M646.87,153.72V128.41h21.19v25.31h14.86v17.82H668.06v42.71c0,3.36,1.68,5,4.7,5h13.45v17.83H663.35c-9.42,0-16.48-6.73-16.48-16.15V171.54h-8.62V153.72Z"/><path class="cls-1" d="M849.42,153.72v12.44h2.35c3.53-8.07,10.42-13.79,22-13.79,10.76,0,18.66,5.72,22.19,14.12h2.35c3.71-7.73,10.43-14.12,23.71-14.12,15.31,0,27.58,11.6,27.58,28.93v55.82H928.44V183c0-7.74-5.55-12.11-13.62-12.11-8.74,0-15.13,5-15.13,15.47v50.78H878.5V183c0-7.74-5.54-12.11-13.62-12.11-8.74,0-15.13,5-15.13,15.47v50.78H828.56v-83.4Z"/><path class="cls-1" d="M975.85,115c8.41,0,15,5.89,15,14.46s-6.56,14.47-15,14.47-15-5.89-15-14.47S967.45,115,975.85,115Zm10.6,122.08H965.26v-83.4h21.19Z"/><path class="cls-1" d="M1022.87,154.34v13.45h2.36c3.36-7.74,11.09-14.8,26.4-14.8,18.49,0,32.45,13.28,32.45,35v49.78h-21.19V190c0-11.6-6.73-18.49-18.83-18.49-13.62,0-20.85,8.41-20.85,23.2v43.05H1002v-83.4Z"/><path class="cls-1" d="M1187.48,237.12h-20.85V225.35h-2.35c-4.37,7.06-11.77,14.12-26.57,14.12-20.85,0-38.34-18.5-38.34-44.05s17.49-44,38.34-44c14.8,0,22.2,7.06,26.57,14.12h2V128.41h21.18Zm-66.92-41.7c0,16.14,10.09,25.22,22.87,25.22,13.11,0,22.87-9.41,22.87-25.22s-9.76-25.22-22.87-25.22C1130.65,170.2,1120.56,179.28,1120.56,195.42Z"/><polygon class="cls-1" points="812.94 128.41 791.74 128.41 791.72 237.12 812.91 237.12 812.94 128.41"/><path class="cls-1" d="M738.3,151.34c22.2,0,37.83,12.94,37.83,33.12v52.63H755.28V225.32h-2.35c-2.69,5.55-8.58,14.12-26.23,14.12-18.83,0-31.28-10.09-31.28-26.06,0-13.28,11.61-22.53,27.58-24.21l32-3.54V183c0-7.74-5.72-14.47-17.49-14.47-4.7,0-13.48,1.06-18.48,11.75l-17.14-10.42C708.39,160.22,716.1,151.34,738.3,151.34ZM731.91,222c14.8,0,23-8.75,23-20.18v-2l-25.56,3c-7.9,1-11.77,4.54-11.77,9.41C717.62,217.92,722.5,222,731.91,222Z"/><path class="cls-1" d="M149.05,224.6a67.2,67.2,0,0,1-31.64-120L151.83,155l37.59.29-.3-63.83H108.48A96,96,0,1,0,202,208.94,67.07,67.07,0,0,1,149.05,224.6Z"/><path class="cls-1" d="M273.49,257.31c.57-18.11-14.33-33-32.45-33.18s-31.8,14.18-31.72,32.09c0,10.52,4.44,18.46,13.37,24.36,6.82,4.5,15.55,6.06,21.58,3.14l-12.92,17.1,10.26,7.72L269.24,272C271.84,268.19,273.3,263.32,273.49,257.31Z"/></svg>